<svg xmlns="http://www.w3.org/2000/svg" width="12" height="15" viewBox="0 0 12 15">
    <g fill="none" fill-rule="evenodd">
        <path fill="#424448" d="M1.275 2.472c-.012.418-.062.683-.15.798-.09.114-.264.17-.523.17-.2 0-.351-.05-.452-.154C.05 3.183 0 3.032 0 2.83c.011-.171.018-.303.018-.392L.103.584C.114.379.173.229.276.138.379.046.539 0 .758 0h7.484c.218 0 .38.046.482.138.103.091.158.24.164.446l.094 1.855c0 .1.003.195.01.284.004.089.008.13.008.125 0 .2-.055.35-.163.447-.11.097-.273.146-.491.146-.23 0-.388-.057-.475-.171-.085-.115-.134-.38-.146-.798l-.086-1.27H5.167v6.621H6.83c.241 0 .415.046.525.138.109.092.163.237.163.438 0 .195-.052.344-.155.446C7.26 8.95 7.111 9 6.916 9H2.084c-.195 0-.344-.051-.447-.155-.104-.102-.155-.25-.155-.446 0-.206.055-.354.167-.443.112-.088.302-.133.573-.133h1.61V1.202H1.361l-.086 1.27z" transform="translate(1 2)"/>
        <path stroke="#424448" stroke-linecap="round" stroke-linejoin="round" d="M0 11L9 11" transform="translate(1 2)"/>
    </g>
</svg>
